<?xml version="1.0" encoding="UTF-8" standalone="no"?>
<svg width="691px" height="111px" viewBox="0 0 691 111" version="1.1" xmlns="http://www.w3.org/2000/svg" xmlns:xlink="http://www.w3.org/1999/xlink" xmlns:sketch="http://www.bohemiancoding.com/sketch/ns">
    <!-- Generator: Sketch 3.2 (9961) - http://www.bohemiancoding.com/sketch -->
    <title>WATCHDOGAPI-LOGO</title>
    <desc>Created with Sketch.</desc>
    <defs></defs>
    <g id="Welcome" stroke="none" stroke-width="1" fill="none" fill-rule="evenodd" sketch:type="MSPage">
        <g id="Desktop-HD" sketch:type="MSArtboardGroup" transform="translate(-375.000000, -425.000000)">
            <g id="WATCHDOGAPI-LOGO" sketch:type="MSLayerGroup" transform="translate(383.000000, 438.000000)">
                <path d="M554.46,79 L554.46,77.6 C555.06,78.64 556.16,79.26 557.58,79.26 C560.44,79.26 562.06,77 562.06,74.14 C562.06,71.34 560.56,69.1 557.64,69.1 C556.04,69.1 554.92,69.88 554.46,70.74 L554.46,64.52 L552.6,64.52 L552.6,79 L554.46,79 Z M560.14,74.14 C560.14,76.22 559.02,77.58 557.3,77.58 C555.64,77.58 554.44,76.22 554.44,74.14 C554.44,72.06 555.64,70.76 557.3,70.76 C559.04,70.76 560.14,72.06 560.14,74.14 L560.14,74.14 Z M566.56,83.02 L572.82,69.38 L570.8,69.38 L567.92,76.02 L564.92,69.38 L562.76,69.38 L566.9,77.94 L564.5,83.02 L566.56,83.02 Z M581.68,79 L581.68,77.6 C582.28,78.64 583.38,79.26 584.8,79.26 C587.66,79.26 589.28,77 589.28,74.14 C589.28,71.34 587.78,69.1 584.86,69.1 C583.26,69.1 582.14,69.88 581.68,70.74 L581.68,64.52 L579.82,64.52 L579.82,79 L581.68,79 Z M587.36,74.14 C587.36,76.22 586.24,77.58 584.52,77.58 C582.86,77.58 581.66,76.22 581.66,74.14 C581.66,72.06 582.86,70.76 584.52,70.76 C586.26,70.76 587.36,72.06 587.36,74.14 L587.36,74.14 Z M593,73.2 C593.08,71.96 594.04,70.74 595.62,70.74 C597.32,70.74 598.22,71.82 598.26,73.2 L593,73.2 Z M598.54,75.7 C598.18,76.78 597.4,77.64 595.84,77.64 C594.22,77.64 592.98,76.44 592.94,74.72 L600.18,74.72 C600.2,74.6 600.22,74.36 600.22,74.12 C600.22,71.12 598.56,69.08 595.6,69.08 C593.18,69.08 591,71.14 591,74.16 C591,77.42 593.26,79.3 595.84,79.3 C598.08,79.3 599.62,77.96 600.16,76.26 L598.54,75.7 Z M605.24,66.34 L603.52,66.34 L603.52,67.9 C603.52,68.74 603.08,69.38 602.04,69.38 L601.52,69.38 L601.52,71.08 L603.36,71.08 L603.36,76.36 C603.36,78.1 604.4,79.1 606.04,79.1 C606.68,79.1 607.16,78.98 607.32,78.92 L607.32,77.32 C607.16,77.36 606.82,77.4 606.58,77.4 C605.6,77.4 605.24,76.96 605.24,76.08 L605.24,71.08 L607.32,71.08 L607.32,69.38 L605.24,69.38 L605.24,66.34 Z M611.8,79 L611.8,64.52 L609.92,64.52 L609.92,79 L611.8,79 Z M614.5,76.42 C614.5,77.94 615.76,79.3 617.72,79.3 C619.44,79.3 620.4,78.38 620.82,77.7 C620.82,78.4 620.88,78.76 620.92,79 L622.76,79 C622.72,78.76 622.64,78.26 622.64,77.42 L622.64,72.6 C622.64,70.72 621.52,69.08 618.64,69.08 C616.56,69.08 614.9,70.36 614.7,72.2 L616.5,72.62 C616.62,71.5 617.36,70.68 618.68,70.68 C620.14,70.68 620.76,71.46 620.76,72.4 C620.76,72.74 620.6,73.04 620.02,73.12 L617.42,73.5 C615.76,73.74 614.5,74.7 614.5,76.42 L614.5,76.42 Z M617.98,77.72 C617.02,77.72 616.42,77.04 616.42,76.32 C616.42,75.46 617.02,75 617.82,74.88 L620.76,74.44 L620.76,74.88 C620.76,76.98 619.52,77.72 617.98,77.72 L617.98,77.72 Z M627.52,79 L627.52,77.6 C628.12,78.64 629.22,79.26 630.64,79.26 C633.5,79.26 635.12,77 635.12,74.14 C635.12,71.34 633.62,69.1 630.7,69.1 C629.1,69.1 627.98,69.88 627.52,70.74 L627.52,64.52 L625.66,64.52 L625.66,79 L627.52,79 Z M633.2,74.14 C633.2,76.22 632.08,77.58 630.36,77.58 C628.7,77.58 627.5,76.22 627.5,74.14 C627.5,72.06 628.7,70.76 630.36,70.76 C632.1,70.76 633.2,72.06 633.2,74.14 L633.2,74.14 Z M636.72,76.5 C636.88,77.6 638,79.3 640.64,79.3 C643.02,79.3 644.16,77.68 644.16,76.32 C644.16,74.9 643.24,73.84 641.5,73.46 L639.94,73.12 C639.2,72.96 638.84,72.54 638.84,71.96 C638.84,71.3 639.48,70.68 640.44,70.68 C641.96,70.68 642.36,71.78 642.44,72.28 L644.1,71.66 C643.9,70.8 643.08,69.08 640.44,69.08 C638.56,69.08 637.02,70.48 637.02,72.12 C637.02,73.48 637.92,74.5 639.42,74.82 L641.06,75.18 C641.86,75.36 642.3,75.82 642.3,76.42 C642.3,77.1 641.72,77.7 640.66,77.7 C639.3,77.7 638.54,76.9 638.42,75.9 L636.72,76.5 Z M646.56,77.72 C646.56,78.5 647.16,79.1 647.94,79.1 C648.72,79.1 649.34,78.5 649.34,77.72 C649.34,76.94 648.72,76.32 647.94,76.32 C647.16,76.32 646.56,76.94 646.56,77.72 L646.56,77.72 Z M657.78,69.28 C657.68,69.26 657.42,69.22 657.16,69.22 C656.18,69.22 654.98,69.58 654.28,71.06 L654.28,69.38 L652.44,69.38 L652.44,79 L654.32,79 L654.32,74.18 C654.32,72.06 655.38,71.22 656.96,71.22 C657.22,71.22 657.5,71.24 657.78,71.28 L657.78,69.28 Z M666.32,77.84 C666.32,78.24 666.36,78.78 666.4,79 L668.2,79 C668.16,78.66 668.1,77.98 668.1,77.22 L668.1,69.38 L666.22,69.38 L666.22,75.18 C666.22,76.64 665.46,77.64 663.94,77.64 C662.36,77.64 661.76,76.48 661.76,75.16 L661.76,69.38 L659.88,69.38 L659.88,75.44 C659.88,77.62 661.24,79.3 663.48,79.3 C664.6,79.3 665.8,78.84 666.32,77.84 L666.32,77.84 Z" id="by-betlabs.ru" fill="#39A9ED" sketch:type="MSShapeGroup"></path>
                <path d="M403.34,46 L410.06,31.54 L437.3,31.54 L444.02,46 L445.34,46 L424.34,1 L423.02,1 L402.02,46 L403.34,46 Z M423.68,2.38 L436.7,30.34 L410.66,30.34 L423.68,2.38 Z M467.6,1 L452.42,1 L452.42,46 L453.56,46 L453.56,27.58 L467.6,27.58 C474.92,27.58 480.92,21.64 480.92,14.32 C480.92,7 474.92,1 467.6,1 L467.6,1 Z M467.48,2.14 C474.2,2.14 479.66,7.6 479.66,14.32 C479.66,21.04 474.2,26.38 467.6,26.44 L453.56,26.44 L453.56,2.14 L467.48,2.14 Z M492.38,46 L492.38,1 L491.24,1 L491.24,46 L492.38,46 Z M506.9,44.86 C506.9,45.52 507.38,46 508.04,46 C508.7,46 509.24,45.52 509.24,44.86 C509.24,44.2 508.7,43.66 508.04,43.66 C507.38,43.66 506.9,44.2 506.9,44.86 L506.9,44.86 Z M556.64,38.5 C552.8,42.4 547.4,44.86 541.52,44.86 C529.7,44.86 520.16,35.32 520.16,23.5 C520.16,11.68 529.7,2.14 541.52,2.14 C547.4,2.14 552.68,4.48 556.52,8.26 L557.36,7.48 C553.28,3.46 547.7,1 541.52,1 C529.1,1 519.02,11.08 519.02,23.5 C519.02,35.92 529.1,46 541.52,46 C547.76,46 553.4,43.48 557.48,39.4 L556.64,38.5 Z M566.12,23.5 C566.12,35.98 576.14,46 588.62,46 C601.1,46 611.18,35.98 611.18,23.5 C611.18,11.02 601.1,1 588.62,1 C576.14,1 566.12,11.02 566.12,23.5 L566.12,23.5 Z M567.26,23.5 C567.26,11.62 576.74,2.14 588.62,2.14 C600.5,2.14 610.04,11.62 610.04,23.5 C610.04,35.38 600.5,44.86 588.62,44.86 C576.74,44.86 567.26,35.38 567.26,23.5 L567.26,23.5 Z M667.22,46 L668.42,46 L668.42,1 L666.68,1 L644.66,23.02 L622.7,1 L620.96,1 L620.96,46 L622.16,46 L622.16,2.14 L644.66,24.64 L667.22,2.14 L667.22,46 Z" id="api.com" fill-opacity="0.787165987" fill="#443939" sketch:type="MSShapeGroup"></path>
                <path d="M44.82,46 L53.34,46 L74.16,1 L61.2,1 L48.42,28.54 L39.84,9.82 L34.86,9.82 L26.28,28.54 L13.56,1 L0.6,1 L21.36,46 L29.88,46 L37.32,29.98 L44.82,46 Z M83.94,46 L86.64,40.12 L105.06,40.12 L107.82,46 L119.64,46 L98.46,1 L93.12,1 L72.12,46 L83.94,46 Z M95.88,20.26 L100.44,30.16 L91.26,30.16 L95.88,20.26 Z M121.68,12.7 L133.38,12.7 L133.38,46 L145.2,46 L145.2,12.7 L157.14,12.7 L157.14,0.94 L121.68,0.94 L121.68,12.7 Z M200.16,7.54 C196.08,3.46 190.5,1 184.32,1 C171.9,1 161.82,11.08 161.82,23.5 C161.82,35.92 171.9,46 184.32,46 C190.56,46 196.2,43.42 200.28,39.34 L191.88,31.06 C190.02,32.98 187.38,34.06 184.32,34.06 C178.2,34.06 173.76,29.62 173.76,23.5 C173.76,17.38 178.2,12.94 184.32,12.94 C187.38,12.94 190.02,14.02 191.88,15.88 L200.16,7.54 Z M209.28,1 L209.28,46 L221.1,46 L221.1,28.84 L235.38,28.84 L235.38,46 L247.2,46 L247.2,1 L235.38,1 L235.38,17.02 L221.1,17.02 L221.1,1 L209.28,1 Z M256.26,46 L272.94,46 C285.36,46 295.44,35.92 295.44,23.5 C295.44,11.08 285.36,1 272.94,1 L256.26,1 L256.26,46 Z M268.02,12.94 L273,12.94 C278.88,12.94 283.68,17.74 283.68,23.56 C283.68,29.44 278.88,34.24 273,34.24 L268.02,34.24 L268.02,12.94 Z M301.8,23.56 C301.8,35.98 311.82,46 324.24,46 C336.66,46 346.74,35.98 346.74,23.56 C346.74,11.14 336.66,1 324.24,1 C311.82,1 301.8,11.14 301.8,23.56 L301.8,23.56 Z M334.98,23.5 C334.98,29.38 330.18,34.24 324.24,34.24 C318.36,34.24 313.56,29.38 313.56,23.5 C313.56,17.56 318.36,12.76 324.24,12.76 C330.18,12.76 334.98,17.56 334.98,23.5 L334.98,23.5 Z M375.84,21.82 L375.84,29.74 L384.54,29.74 C382.68,32.44 379.38,34.18 375.84,34.18 C370.32,34.18 365.22,29.68 365.22,23.5 C365.22,17.32 370.2,12.82 375.84,12.82 C378.9,12.82 381.42,14.02 383.34,15.82 L391.68,7.54 C387.6,3.52 382.02,1 375.84,1 C363.42,1 353.4,11.08 353.4,23.5 C353.4,35.92 363.42,46 375.84,46 C388.26,46 398.34,35.92 398.34,23.5 L398.34,21.82 L375.84,21.82 Z" id="watchdog" fill-opacity="0.787165987" fill="#443939" sketch:type="MSShapeGroup"></path>
            </g>
        </g>
    </g>
</svg>